<?xml version="1.0" encoding="utf-8"?>
<!-- Generator: Adobe Illustrator 21.1.0, SVG Export Plug-In . SVG Version: 6.00 Build 0)  -->
<svg version="1.1" id="Layer_1" xmlns="http://www.w3.org/2000/svg" xmlns:xlink="http://www.w3.org/1999/xlink" x="0px" y="0px"
	 viewBox="0 0 594.5 350.1" style="enable-background:new 0 0 594.5 350.1;" xml:space="preserve">
<style type="text/css">
	.st0{opacity:0.15;fill:#FF0000;enable-background:new    ;}
</style>
<path id="XMLID_1_" class="st0" d="M448.4,330.6c-1.2,0.4-2.5,0.7-3.7,1.1c-7.3,2.1-14.7,4.1-22.3,5.9c-1.3,0.3-2.5,0.6-3.8,0.9
	c-6.9,1.6-13.9,3-21,4.3c-1.8,0.3-3.6,0.6-5.4,0.9l0,0c-52.6,8.9-111.3,9.7-170.9-5.1c-47.7-11.8-93.8-32.9-134.4-61.6
	C53.4,253.6,24,225.2,0,192.7V0c52,30.6,128.7,99.5,223.6,86c66.7-9.5,105.1-55.9,133.2-35.8c29.9,21.3-5.9,79.1,22.9,127.4
	c47,78.6,210.2,39.8,214.7,64.4C597.5,258.6,537.2,304.2,448.4,330.6z"/>
</svg>
