<?xml version="1.0" encoding="utf-8"?>
<!-- Generator: Adobe Illustrator 21.1.0, SVG Export Plug-In . SVG Version: 6.00 Build 0)  -->
<svg version="1.1" id="Layer_1" xmlns="http://www.w3.org/2000/svg" xmlns:xlink="http://www.w3.org/1999/xlink" x="0px" y="0px"
	 viewBox="0 0 241.4 621.5" style="enable-background:new 0 0 241.4 621.5;" xml:space="preserve">
<style type="text/css">
	.st0{opacity:0.15;fill:url(#XMLID_4_);enable-background:new    ;}
	.st1{opacity:0.15;fill:#FF0000;enable-background:new    ;}
	.st2{opacity:0.25;}
	.st3{fill:url(#XMLID_5_);}
</style>
<linearGradient id="XMLID_4_" gradientUnits="userSpaceOnUse" x1="422.6049" y1="1092.9081" x2="307.8983" y2="864.4795" gradientTransform="matrix(1 0 0 -1 0 624)">
	<stop  offset="0" style="stop-color:#23B463"/>
	<stop  offset="1" style="stop-color:#76C043"/>
</linearGradient>
<path id="XMLID_32_" class="st0" d="M468.3-455.8c-87.6-45.1-170.1,61.3-264.4,22.4v212.5c63.5,39.7,137.7,57.5,204,36.9
	c53.1-16.5,126.9-65.6,132.4-139C544.1-373.1,515.8-431.4,468.3-455.8z"/>
<path id="XMLID_33_" class="st1" d="M241.4,0.4c-50.3-5-116.5,42.8-124.4,91.1c-8.1,50.3,51.9,82,37.5,122.6
	C141,252.5,83.1,236.7,38,285.7c-49.5,53.8-36.7,136-35.9,150.8c0.6,10.7,14.6,98.4,89.9,149.2c43.9,29.6,98.8,39.8,149.5,34.4V0.4
	H241.4z"/>
<g id="XMLID_2_" class="st2">
	
		<linearGradient id="XMLID_5_" gradientUnits="userSpaceOnUse" x1="-8722.6084" y1="427.074" x2="-8722.6084" y2="560.4494" gradientTransform="matrix(-1 0 0 -1 -9544.3584 624)">
		<stop  offset="0" style="stop-color:#23B463"/>
		<stop  offset="1" style="stop-color:#76C043"/>
	</linearGradient>
	<path id="XMLID_3_" class="st3" d="M-760.7,64.1c3.9,0,7.2,1.4,10,4.1c2.7,2.7,4.1,6.1,4.1,10v37.5c0,3.9-1.4,7.2-4.1,10
		s-6.1,4.1-10,4.1h-23.5v18.8c0,5.1,1.9,9.5,5.6,13.2s8.1,5.6,13.2,5.6h2.3c2,0,3.6,0.7,5,2.1c1.4,1.4,2.1,3,2.1,5v14.1
		c0,2-0.7,3.6-2.1,5s-3,2.1-5,2.1h-2.3c-8.4,0-16.2-2.1-23.5-6.3c-7.2-4.2-12.9-9.9-17.2-17.2c-4.2-7.2-6.3-15.1-6.3-23.5V78.1
		c0-3.9,1.4-7.2,4.1-10c2.7-2.7,6.1-4.1,10-4.1L-760.7,64.1L-760.7,64.1z M-845.2,64.1c3.9,0,7.2,1.4,10,4.1c2.7,2.7,4.1,6.1,4.1,10
		v37.5c0,3.9-1.4,7.2-4.1,10c-2.7,2.7-6.1,4.1-10,4.1h-23.5v18.8c0,5.1,1.9,9.5,5.6,13.2c3.7,3.7,8.1,5.6,13.2,5.6h2.3
		c2,0,3.6,0.7,5,2.1c1.4,1.4,2.1,3,2.1,5v14.1c0,2-0.7,3.6-2.1,5c-1.4,1.4-3,2.1-5,2.1h-2.3c-8.4,0-16.2-2.1-23.5-6.3
		c-7.2-4.2-12.9-9.9-17.2-17.2c-4.2-7.2-6.3-15.1-6.3-23.5V78.1c0-3.9,1.4-7.2,4.1-10c2.7-2.7,6.1-4.1,10-4.1L-845.2,64.1
		L-845.2,64.1z"/>
</g>
</svg>
