<?xml version="1.0" encoding="UTF-8"?>
<!DOCTYPE svg PUBLIC "-//W3C//DTD SVG 1.1//EN" "http://www.w3.org/Graphics/SVG/1.1/DTD/svg11.dtd">
<!-- Creator: CorelDRAW 2019 (64-Bit) -->
<svg xmlns="http://www.w3.org/2000/svg" xml:space="preserve" width="9.26811in" height="0.256311in" version="1.1" style="shape-rendering:geometricPrecision; text-rendering:geometricPrecision; image-rendering:optimizeQuality; fill-rule:evenodd; clip-rule:evenodd"
viewBox="0 0 8538.01 236.12"
 xmlns:xlink="http://www.w3.org/1999/xlink"
 xmlns:xodm="http://www.corel.com/coreldraw/odm/2003">
 <defs>
  <style type="text/css">
   <![CDATA[
    .fil0 {fill:#25527B}
    .fil1 {fill:red}
   ]]>
  </style>
 </defs>
 <g id="Layer_x0020_1">
  <metadata id="CorelCorpID_0Corel-Layer"/>
  <path class="fil0" d="M4032.92 147.32l-2931.42 0c-314.92,0 -629.2,-7.95 -942.67,-23.89l-158.84 -8.75 158.84 -8.25c313.18,-15.94 627.44,-23.89 942.67,-23.89l2931.41 0.05 0 64.73zm4346.25 -40.58c-313.18,-15.94 -627.44,-23.89 -942.67,-23.89l-2931.41 -0.05 0 64.73 2931.42 0c314.92,0 629.2,-7.95 942.67,-23.89l158.84 -8.1 -158.84 -8.8z"/>
  <path class="fil1" d="M4263.95 0.01c-62.27,5.84 -112.68,51.9 -114.08,115.57 -2.32,105.8 132.38,165 206.78,79.97 65.58,-74.95 15.4,-187.84 -83.04,-195.55l-9.67 0.01z"/>
 </g>
</svg>
