<?xml version="1.0" encoding="utf-8"?>
<!-- Generator: Adobe Illustrator 23.0.3, SVG Export Plug-In . SVG Version: 6.00 Build 0)  -->
<svg version="1.1" id="Layer_1" xmlns="http://www.w3.org/2000/svg" xmlns:xlink="http://www.w3.org/1999/xlink" x="0px" y="0px"
	 viewBox="0 0 40 40" style="enable-background:new 0 0 40 40;" xml:space="preserve">
<style type="text/css">
	.st0{opacity:0.7;}
	.st1{fill:#A7AEB3;}
</style>
<g>
	<g transform="translate(-628 -1168)" class="st0">
		<g class="st0">
			<g>
				<path class="st1" d="M657.6,1203.3h-3.2c-2.9,0-5.1-2.7-5.1-6v-7.5h13.5v7.5C662.7,1200.7,660.5,1203.3,657.6,1203.3
					L657.6,1203.3z M662.9,1204.4l-0.6,1H650l-0.6-1H662.9z M639.8,1205.4l-0.9-7.4c-0.1-0.4,0.2-0.9,0.6-0.9h0.1h8.5
					c0,2.5,1,4.8,2.8,6.2h-5.7v1h2.6l0.6,1H639.8z M634.3,1200.2c-0.1-0.4,0.2-0.8,0.5-1l2.8-0.9l0.8,7.2h-3.2L634.3,1200.2z
					 M630.4,1205.4c-0.3,0-0.6-0.2-0.7-0.6c-0.1-0.3,0-0.7,0.3-0.9l3.1-2.5l0.7,4.1H630.4z M630.7,1179.4H641v16.6h-1.3
					c-0.8,0-1.6,0.6-2,1.5l-3.2,1c-0.8,0.3-1.3,1-1.4,2l-2.5,2v-23.1H630.7z M632.2,1173.2h10.4l-1.4,4.2h-10.4L632.2,1173.2z
					 M632.7,1170h10.4v2.1h-10.4V1170z M645.1,1179.4v16.6H642v-16.6H645.1z M644.6,1177.3h-2l0.9-2.5L644.6,1177.3z M663.9,1189.8
					h2.1v3.6c0,1.4-0.9,2.5-2.1,2.8V1189.8z M663.9,1197.8c1.9-0.3,3.1-4.4,3.1-4.4v-3.9c0-0.4-0.3-0.7-0.6-0.7h-18.5
					c-0.3,0-0.6,0.3-0.6,0.6v6.7h-1v-17.5c0-0.1,0-0.2-0.1-0.3l-2-5v-3.5c0-0.4-0.3-0.7-0.6-0.7l0,0h-11.3c-0.3,0-0.6,0.3-0.6,0.6
					v0.8l-2,5.4c0,0.1-0.1,0.2-0.1,0.3v27c-1,0.9-1.1,2.5-0.3,3.5c0.4,0.6,1.1,1,1.8,1h33.9c0.2,0,0.5-0.2,0.7-0.4l1.2-2.7h0.3v-1
					h-5.4C662.8,1201.8,663.7,1199.9,663.9,1197.8L663.9,1197.8z"/>
			</g>
		</g>
		<g class="st0">
			<g>
				<path class="st1" d="M653.9,1200.2c-2,0.6-3.6-3.4-3.6-3.4v-0.8h-1v0.8c-0.4,3,4.6,5.4,4.6,5.4h0.6v-2.1H653.9z"/>
			</g>
		</g>
		<g class="st0">
			<g>
				<path class="st1" d="M649.3,1191.9v-1h1v1H649.3z"/>
			</g>
		</g>
		<g class="st0">
			<g>
				<path class="st1" d="M660.5,1179.4h-7.1c-0.5,0-0.9-0.5-0.9-1s0.4-1,0.9-1h2.6c1.8,0,3.3-1.8,3.3-4.2h-1.3
					c0,1.1-0.8,2.1-1.6,2.1h-2.9c0,0-2.1,1.9-2.1,3.3s2.1,2.9,2.1,2.9h7.2c0.5,0,0.9,0.5,0.9,1c0,0.6-0.4,1-0.9,1h-8.6
					c-1.8,0-3.3,1.8-3.3,4.2h1.3c0-1.1,0.8-2.1,1.6-2.1h8.7c0,0,2.1-1.8,2.1-3.2C662.7,1180.9,660.5,1179.4,660.5,1179.4z"/>
			</g>
		</g>
		<g class="st0">
			<g>
				<path class="st1" d="M634.7,1187.1c-0.8,0-1.5-0.7-1.5-1.6c0-0.8,0.6-1.6,1.5-1.6c0.8,0,1.5,0.7,1.5,1.6
					C636.1,1186.4,635.4,1187.1,634.7,1187.1z M634.7,1182.3c-1.6,0-2.8,1.4-2.8,3.1s1.2,3.1,2.8,3.1s2.8-1.4,2.8-3.1
					S636.3,1182.3,634.7,1182.3z"/>
			</g>
		</g>
		<g class="st0">
			<g>
				<path class="st1" d="M631.6,1190.9v-1h6.2v1H631.6z"/>
			</g>
		</g>
		<g class="st0">
			<g>
				<path class="st1" d="M631.6,1191.9v-1h6.2v1H631.6z"/>
			</g>
		</g>
	</g>
</g>
</svg>
