<svg xmlns="http://www.w3.org/2000/svg" xmlns:xlink="http://www.w3.org/1999/xlink" width="20" height="17" viewBox="0 0 20 17"><defs><path id="gfx8a" d="M435 2913.643c-2.872 0-5.208-2.396-5.208-5.34 0-2.945 2.336-5.341 5.208-5.341 2.872 0 5.208 2.396 5.208 5.34 0 2.945-2.336 5.341-5.208 5.341zm0-11.493c-3.308 0-6 2.76-6 6.153 0 3.392 2.692 6.152 6 6.152s6-2.76 6-6.152c0-3.393-2.692-6.153-6-6.153z"/><path id="gfx8b" d="M438.513 2906.339a.387.387 0 0 0-.531-.16l-.019.011a.407.407 0 0 0-.137.534c.255.48.39 1.026.39 1.578 0 1.819-1.442 3.298-3.216 3.298-1.774 0-3.217-1.48-3.217-3.298 0-1.82 1.443-3.299 3.217-3.299.17 0 .341.014.508.041.206.034.4-.105.443-.312l.005-.022a.4.4 0 0 0-.326-.46 3.942 3.942 0 0 0-.63-.05c-2.206 0-4 1.84-4 4.102 0 2.261 1.794 4.101 4 4.101s4-1.84 4-4.101a4.19 4.19 0 0 0-.487-1.963z"/><path id="gfx8c" d="M437.853 2905.38a.48.48 0 0 0-.162-.11.496.496 0 0 0-.383 0 .503.503 0 0 0-.29.337l-.008.036a.52.52 0 0 0 .392.603.488.488 0 0 0 .364-.07l.011-.007a.514.514 0 0 0 .223-.426.523.523 0 0 0-.147-.363z"/><path id="gfx8d" d="M444.23 2915.371a.522.522 0 0 1-.415.346c-.28.038-.537-.178-.572-.48l-.466-4.089 1.019-.134.466 4.088a.588.588 0 0 1-.032.269zm-2.495-13.358c-.002-.016-.007-.058.043-.083a.08.08 0 0 1 .035-.01c.028 0 .044.02.051.027l.033.037c.247.28.462.59.64.926.288.545.47 1.138.542 1.76l.637 5.56-1.024.134zm3.256 12.992l-1.19-10.431a5.802 5.802 0 0 0-.63-2.053 5.534 5.534 0 0 0-.743-1.08l-.032-.037a.757.757 0 0 0-.932-.188.873.873 0 0 0-.458.893l1.509 13.224c.005.042.011.084.02.125.125.614.635 1.053 1.217 1.053.05 0 .101-.003.153-.01.405-.053.741-.312.93-.666a1.385 1.385 0 0 0 .1-.236 1.43 1.43 0 0 0 .056-.594z"/><path id="gfx8e" d="M426.883 2914.138a.594.594 0 0 1-.206.405.536.536 0 0 1-.42.127l-.007-.001a.55.55 0 0 1-.378-.228.608.608 0 0 1-.109-.442l1.277-8.642.299.038.299.039zm2.785-13.586a.383.383 0 0 0-.422.347l-.344 2.951c-.054.46-.407.807-.844.835l-.251-.032.453-3.881a.395.395 0 0 0-.33-.444.383.383 0 0 0-.422.347l-.452 3.88-.251-.032a.951.951 0 0 1-.627-1.025l.344-2.95a.395.395 0 0 0-.33-.445.383.383 0 0 0-.421.347l-.344 2.951c-.086.739.272 1.431.875 1.763l-1.287 8.723v.003c-.053.373.038.744.255 1.044.217.3.532.49.887.536h.007a1.266 1.266 0 0 0 .988-.297c.28-.237.452-.576.485-.953l.76-8.785c.663-.168 1.17-.749 1.256-1.487l.344-2.952a.395.395 0 0 0-.33-.444z"/></defs><g><g opacity=".7" transform="translate(-425 -2900)"><g opacity=".7"><use fill="#4d5964" xlink:href="#gfx8a"/></g><g opacity=".7"><use fill="#4d5964" xlink:href="#gfx8b"/></g><g opacity=".7"><use fill="#4d5964" xlink:href="#gfx8c"/></g><g opacity=".7"><use fill="#4d5964" xlink:href="#gfx8d"/></g><g opacity=".7"><use fill="#4d5964" xlink:href="#gfx8e"/></g></g></g></svg>