<?xml version="1.0" encoding="utf-8"?>
<!-- Generator: Adobe Illustrator 23.0.3, SVG Export Plug-In . SVG Version: 6.00 Build 0)  -->
<svg version="1.1" id="Layer_1" xmlns="http://www.w3.org/2000/svg" xmlns:xlink="http://www.w3.org/1999/xlink" x="0px" y="0px"
	 viewBox="0 0 40 40" style="enable-background:new 0 0 40 40;" xml:space="preserve">
<style type="text/css">
	.st0{opacity:0.7;}
	.st1{fill:#A7AEB3;}
</style>
<g>
	<g>
		<g>
			<g transform="translate(-340 -2897)" class="st0">
				<g class="st0">
					<g>
						<path id="i11fa_2_" class="st1" d="M377.6,2934.6c-0.7,0.4-1.7,0.4-2.3,0l0,0c-1.2-0.7-3-0.7-4.1,0c-0.7,0.4-1.7,0.4-2.3,0
							l0,0c-1.2-0.7-3-0.7-4.1,0l0,0c-0.7,0.4-1.7,0.4-2.3,0l0,0c-1.2-0.7-3-0.7-4.1,0c-0.7,0.4-1.7,0.4-2.3,0l0,0
							c-1.2-0.7-3-0.7-4.1,0l0,0c-0.7,0.4-1.7,0.4-2.3,0c-1.2-0.7-3-0.7-4.1,0l0,0c-0.7,0.4-1.7,0.4-2.3,0c-0.3-0.2-0.8-0.2-1,0.1
							c-0.2,0.2-0.2,0.6,0.1,0.7c0.6,0.3,1.4,0.6,2.1,0.6s1.4-0.2,2.1-0.5l0,0c0.7-0.4,1.7-0.4,2.3,0c1.2,0.7,3,0.7,4.1,0l0,0
							c0.7-0.4,1.7-0.4,2.3,0l0,0c1.2,0.7,3,0.7,4.1,0c0.7-0.4,1.7-0.4,2.3,0l0,0c1.2,0.7,3,0.7,4.1,0l0,0c0.7-0.4,1.6-0.4,2.3,0
							c1.2,0.7,3,0.7,4.1,0c0.7-0.4,1.7-0.4,2.3,0l0,0c1.2,0.7,3,0.7,4.1,0c0.3-0.2,0.4-0.5,0.1-0.7
							C378.4,2934.4,377.9,2934.4,377.6,2934.6L377.6,2934.6z"/>
					</g>
				</g>
				<g class="st0">
					<g>
						<path id="i11fb_2_" class="st1" d="M347.7,2905.9c1.4,0.3,2.4,1.3,3,2.5l-6.9-1.8C344.9,2905.9,346.3,2905.6,347.7,2905.9
							L347.7,2905.9z M357.4,2903.1l-3.2,3.1c-0.7,0.3-1.4,0.9-1.9,1.4c0-1.2,0.5-2.4,1.4-3.2C354.6,2903.5,356,2903,357.4,2903.1
							L357.4,2903.1z M353.1,2908.5c1-1.1,2.4-1.8,3.9-1.8c1.5,0,3,0.6,3.9,1.8H353.1z M364.6,2906.9c-0.6,0.7-1.1,1.5-1.6,2.3
							c0-0.1,0-0.2-0.1-0.2c-0.4-0.8-1-1.5-1.6-2.1H364.6z M365.4,2903.9l1.4,1.4h-7.3c1-1.1,2.4-1.8,3.9-1.8
							C364.1,2903.5,364.8,2903.6,365.4,2903.9L365.4,2903.9z M368.2,2905l-5.1-5c1.4-0.2,2.8,0.4,3.7,1.4
							C367.9,2902.3,368.4,2903.6,368.2,2905z M373.9,2902.7c1,0,1.9,0.3,2.7,0.8l-6.9,1.8C370.5,2903.7,372.2,2902.7,373.9,2902.7z
							 M372.3,2908.7c-0.4-0.7-0.9-1.4-1.5-1.9c2.6,0,4.7,2.1,4.7,4.6c0,0.2,0,0.2,0,0.4L372.3,2908.7z M369.1,2907.7
							c1.2,1,1.9,2.3,1.9,3.8s-0.7,3-1.9,3.9V2907.7z M356.4,2910.1h5.8c0.2,0,0.2,0,0.3-0.1c-1.2,2.2-2.1,4.5-2.6,7
							C359.2,2914.6,358,2912.2,356.4,2910.1L356.4,2910.1z M369.7,2928.9c-0.3-0.1-0.6-0.2-0.9-0.4l0,0c-1.2-1-3-1-4.1,0l0,0
							c-0.7,0.6-1.7,0.6-2.3,0l0,0c-1.2-1-3-1-4.1,0c-0.7,0.6-1.7,0.6-2.3,0l0,0c-1.2-1-3-1-4.1,0l0,0c-0.2,0.2-0.6,0.3-0.9,0.4
							c2.2-3,5.7-4.7,9.5-4.7C364,2924.1,367.5,2925.9,369.7,2928.9L369.7,2928.9z M352.3,2910.2L352.3,2910.2l2-0.1
							c3,3.5,4.7,7.9,4.9,12.6c-0.6,0-1.1,0.1-1.7,0.2c-0.2-4.4-1.8-8.7-4.8-12.1L352.3,2910.2z M349.3,2912.6l1.4-1.4v7.3
							c-1.2-1-1.9-2.3-1.9-3.8C348.8,2914,349,2913.2,349.3,2912.6z M345.3,2914.9c-0.2-1.4,0.4-2.7,1.4-3.7c1-1,2.4-1.4,3.7-1.4
							L345.3,2914.9z M342,2907.5l5.2,1.4c-2.9,1.4-4.3,4.8-3.2,7.9c0.2,0.4,0.6,0.6,1,0.4c0.1,0,0.2-0.1,0.2-0.2l2.4-2.4v0.2
							c0,2.6,1.5,5,3.7,6.1c0.4,0.2,0.8,0,1-0.3c0.1-0.1,0.1-0.2,0.1-0.3v-7.9c2.4,3.2,3.8,7,3.9,11c-1,0.3-1.9,0.7-2.8,1.1
							c-1.8,1-3.3,2.5-4.5,4.1c-1.2-0.9-2.9-0.9-4.2,0l0,0c-0.7,0.6-1.7,0.6-2.4,0c-0.3-0.2-0.8-0.2-1.1,0.1c-0.2,0.3-0.2,0.7,0.1,1
							l0,0c1.2,1,3,1,4.2,0l0,0c0.7-0.6,1.7-0.6,2.4,0c1.2,1,3,1,4.2,0l0,0c0.7-0.6,1.7-0.6,2.4,0l0,0c1.2,1,3,1,4.2,0
							c0.7-0.6,1.7-0.6,2.4,0l0,0c1.2,1,3,1,4.2,0l0,0c0.7-0.6,1.7-0.6,2.4,0l0,0c1.2,1,3,1,4.2,0c0.7-0.6,1.7-0.6,2.4,0l0,0
							c1.2,1,3,1,4.2,0c0.3-0.2,0.4-0.7,0.1-1l0,0c-0.2-0.3-0.7-0.3-1.1-0.1c-0.7,0.6-1.7,0.6-2.4,0l0,0c-1.2-1-2.9-1-4.2,0
							c-1.1-1.7-2.7-3.1-4.5-4.1c-0.7-0.4-1.5-0.7-2.4-1.1v-1.2c0,0,0.1-2.1,0.2-3.1c0.1-0.4-0.2-0.7-0.6-0.8
							c-0.4-0.1-0.8,0.2-0.8,0.6c-0.2,1.1-0.4,3.3-0.4,3.3v0.9c0,0-1.3-0.2-2.4-0.3v-0.8c0.5-5.4,6-15,6-15h1.2v0.7
							c-1.1,1.6-2.1,3.3-2.8,5.1c-0.2,0.3,0,0.8,0.4,1c0.1,0,0.2,0.1,0.3,0.1c0.3,0,0.6-0.2,0.6-0.4c0.4-1,0.9-2,1.4-3v6.7
							c0,0.4,0.3,0.8,0.7,0.8c0.1,0,0.2,0,0.3-0.1c2.3-1.1,3.7-3.5,3.7-6.1v-0.2l2.4,2.4c0.3,0.3,0.7,0.3,1,0
							c0.1-0.1,0.2-0.2,0.2-0.3c1.1-3.1-0.3-6.5-3.2-7.9l5.2-1.4c0.4-0.1,0.6-0.5,0.5-0.9c0-0.1-0.1-0.2-0.2-0.3
							c-1.5-1.9-4-2.7-6.3-2c-1.1,0.3-2.1,0.9-2.9,1.8c-0.2-1.2-0.8-2.2-1.7-3c-1.7-1.8-4.2-2.3-6.5-1.4c-0.4,0.2-0.6,0.6-0.4,0.9
							c0,0.1,0.1,0.2,0.2,0.3l2.4,2.5h-0.2c-2.3,0-4.5,1.3-5.6,3.3c-0.2,0-0.6-0.1-0.8-0.1h-0.2l2.4-2.5c0.3-0.3,0.3-0.8,0-1
							c-0.1-0.1-0.2-0.2-0.2-0.2c-2.2-0.8-4.8-0.3-6.5,1.4c-0.8,0.8-1.4,1.9-1.7,3c-0.8-0.8-1.8-1.5-2.9-1.8c-2.3-0.6-4.7,0.2-6.3,2
							c-0.2,0.3-0.2,0.8,0.1,1C341.7,2907.4,341.8,2907.4,342,2907.5L342,2907.5z"/>
					</g>
				</g>
				<g class="st0">
					<g>
						<path id="i11fc_2_" class="st1" d="M364.8,2915.4c-0.2,0-0.5,0.1-0.6,0.2c-0.4,0.4-0.4,1,0,1.3c0.3,0.3,1,0.4,1.3,0l0,0
							c0.4-0.4,0.4-1,0-1.3C365.3,2915.5,365.1,2915.4,364.8,2915.4z"/>
					</g>
				</g>
			</g>
		</g>
	</g>
</g>
</svg>
