<?xml version="1.0" encoding="utf-8"?>
<!-- Generator: Adobe Illustrator 23.0.3, SVG Export Plug-In . SVG Version: 6.00 Build 0)  -->
<svg version="1.1" id="Layer_1" xmlns="http://www.w3.org/2000/svg" xmlns:xlink="http://www.w3.org/1999/xlink" x="0px" y="0px"
	 viewBox="0 0 40 40" style="enable-background:new 0 0 40 40;" xml:space="preserve">
<style type="text/css">
	.st0{opacity:0.7;}
	.st1{fill:#A7AEB3;}
</style>
<g>
	<g class="st0">
		<g transform="matrix(1 0 0 1 0 0)">
			<g id="Outline_1_">
				<g>
					<path class="st1" d="M28,20.6c1,0,2-1.4,2-3s-0.8-3-2-3c-1,0-2,1.4-2,3C26.1,19.3,26.9,20.6,28,20.6z M28,16.7
						c0.3,0,0.6,0.5,0.6,1s-0.2,1-0.6,1c-0.3,0-0.6-0.5-0.6-1S27.6,16.7,28,16.7z"/>
					<path class="st1" d="M32.7,15.4c1,0.8,2,2.2,2.4,3.8c0.1,0.3,0.3,0.5,0.6,0.5c0.1,0,0.2,0,0.2-0.1c0.3-0.2,0.5-0.9,0.2-1.3
						c-0.6-2-1.7-3.7-3-4.6c-0.3-0.2-0.7,0-0.8,0.5C32.2,14.7,32.4,15.3,32.7,15.4L32.7,15.4L32.7,15.4z"/>
					<ellipse class="st1" cx="36.3" cy="22.5" rx="0.6" ry="1"/>
					<path class="st1" d="M32.3,19.2c-0.1-0.5-0.6-0.6-0.8-0.3c-0.1,0.1-0.2,0.2-0.2,0.3l-2,6.1l-0.7-2.2c-0.1-0.5-0.6-0.6-0.8-0.3
						c-0.1,0.1-0.2,0.2-0.2,0.3l-1.8,5.1c-0.1,0.5,0,1,0.2,1.3c0.1,0.1,0.2,0.1,0.2,0.1c0.2,0,0.5-0.2,0.6-0.5l1-3.2l0.6,1.7
						l-0.7,2.8c-0.1,0.5,0,1.1,0.2,1.3c0.1,0.1,0.2,0.1,0.2,0.1c0.2,0,0.5-0.2,0.6-0.5l3-9.3l2.3,7.3c0.1,0.5,0.5,0.6,0.8,0.3
						c0.3-0.2,0.5-0.9,0.2-1.3L32.3,19.2z"/>
					<path class="st1" d="M30.7,9.5c-0.2-2.4-1.5-4.3-3.1-4.3h-0.2v-1c0-1.7-0.9-3.3-2.1-3.3H14.9c-1,0-2,1.5-2,3.3v1h-0.6
						c-1.5,0-2.8,1.7-3.1,4.2c-1.7,0.1-3.4,1.2-4.6,2.8c-0.3,0.3-0.4,1-0.3,1.5c0.2,0.6,0.6,0.7,0.8,0.2c0,0,0,0,0.1-0.1
						c3.4-4.2,8.2-2.8,10.6,2.7s1.7,13.7-1.7,17.8S6,37.2,3.5,31.6c-2-4.4-2-10.6,0-15c0.2-0.3,0.2-1-0.1-1.5
						c-0.2-0.3-0.7-0.2-0.8,0.1v0.1C-0.3,22,0.5,31.1,4.6,36s9.5,3.4,12.4-3.3c0.9-2.2,1.5-4.8,1.7-7.3l1.3-0.3l1.3,0.3
						c0.5,8.1,4.9,14.1,9.7,13.3c4.9-0.8,8.5-8.1,7.9-16.3C38.4,15.7,35,10,30.7,9.5z M15,3.9c-0.4-0.5-0.2-1,0.3-0.8h10.1
						c0.5-0.1,0.7,0.4,1,0.8v1.3H15V3.9z M30.4,34.3c-4.3,0-7.7-5.4-7.7-12.1c0-2.5,0.5-4.9,1.5-7c0.2-0.3,0.2-1-0.1-1.4
						c-0.3-0.3-0.7-0.2-0.8,0.1V14c-1.1,2.2-1.7,4.8-1.7,7.7l-1.3-0.3c-0.1,0-0.1,0-0.2,0l-1.3,0.3c-0.2-7-3.8-12.9-8.2-13.3
						c0.2-1.1,0.9-2.1,1.8-2.1h15.5c0.8,0,1.6,0.9,1.8,2.1c-1.6,0.2-3.2,1.1-4.5,2.6c-0.2,0.2-0.3,0.9-0.2,1.4
						c0.2,0.5,0.6,0.7,0.8,0.2c0,0,0,0,0.1-0.1c3.5-4,8.3-2.9,10.9,2.5s1.8,13-1.7,16.8C33.7,33.5,32.1,34.3,30.4,34.3z"/>
					<path class="st1" d="M20.4,8.7c-1,0-2.2,1-2.8,2.5c-0.1,0.5-0.1,1,0.2,1.4c0.3,0.2,0.7,0.1,0.8-0.3l0,0c0.5-1.4,1.7-1.8,2.7-1
						c0.2,0.2,0.5,0.6,0.7,1c0.1,0.2,0.3,0.5,0.6,0.5c0.1,0,0.2,0,0.3-0.1c0.2-0.2,0.3-0.9,0.2-1.4C22.6,9.7,21.4,8.7,20.4,8.7z"/>
					<path class="st1" d="M9.6,17.7c0-1.6-0.8-3-2-3s-1.9,1.4-1.9,3s0.8,3,2,3S9.6,19.3,9.6,17.7z M7.1,17.7c0-0.5,0.2-1,0.6-1
						s0.6,0.5,0.6,1s-0.2,1-0.6,1C7.4,18.6,7.1,18.2,7.1,17.7z"/>
					<path class="st1" d="M13,13.7c-0.3-0.2-0.7,0-0.8,0.5c-0.1,0.5,0,1.1,0.3,1.3l0,0c1,0.8,2,2.2,2.4,3.8c0.1,0.3,0.3,0.5,0.6,0.5
						c0.1,0,0.2,0,0.2-0.1c0.3-0.2,0.5-0.9,0.2-1.3l0,0C15.4,16.3,14.2,14.7,13,13.7z"/>
					<ellipse class="st1" cx="16" cy="22.5" rx="0.6" ry="1"/>
					<path class="st1" d="M5.9,29.4c0.1,0.1,0.2,0.1,0.2,0.1c0.2,0,0.5-0.2,0.6-0.5l1-3.2l0.6,1.7l-0.8,2.9c-0.1,0.5,0,1.1,0.2,1.3
						c0.1,0.1,0.2,0.1,0.2,0.1c0.2,0,0.5-0.2,0.6-0.5l3-9.3l2.3,7.3c0.1,0.5,0.5,0.6,0.8,0.3c0.3-0.2,0.5-0.9,0.2-1.3L12,19.2
						c-0.1-0.5-0.6-0.6-0.8-0.3c-0.1,0.1-0.2,0.2-0.2,0.3l-2,6.1l-0.7-2.2c-0.1-0.5-0.6-0.6-0.8-0.3c-0.1,0.1-0.2,0.2-0.2,0.3
						l-1.5,5.1C5.3,28.5,5.4,29.2,5.9,29.4z"/>
				</g>
			</g>
		</g>
	</g>
</g>
</svg>
