<?xml version="1.0" encoding="utf-8"?>
<!-- Generator: Adobe Illustrator 23.0.3, SVG Export Plug-In . SVG Version: 6.00 Build 0)  -->
<svg version="1.1" id="Layer_1" xmlns="http://www.w3.org/2000/svg" xmlns:xlink="http://www.w3.org/1999/xlink" x="0px" y="0px"
	 viewBox="0 0 40 40" style="enable-background:new 0 0 40 40;" xml:space="preserve">
<style type="text/css">
	.st0{fill:#A8AEB4;}
</style>
<g>
	<g>
		<g>
			<path class="st0" d="M36.1,29.4L36.1,29.4c0-0.1-0.8-0.2-0.9-0.2l-0.1-0.1L35,29c0,0-0.1,0-0.1,0h-0.1h-0.3h-0.1
				c0-0.1-0.1-0.1-0.1,0l-0.1,0.1l-0.1,0.1c0,0,0,0.1,0,0.1v0.1v0.1v0.1v0.1c-0.1,0-0.1,0.1,0,0.1l0.1,0.1l0.1,0.1l0.1,0h0h0.1h0.1
				h0.1c0,0.1,0.1,0.1,0.1,0l0.1-0.1l0.1-0.1c0,0,0-0.1,0.1-0.1v-0.1v-0.1C35.3,29.6,36.1,29.4,36.1,29.4z"/>
		</g>
	</g>
	<g>
		<g>
			<path class="st0" d="M6.5,29L6.5,29c-0.1-0.1-0.2-0.1-0.2,0H6.2H5.9H5.7c0-0.2-0.1-0.2-0.1-0.1L5.5,29l-0.1,0.1
				c0,0,0,0.1,0.1,0.1v0.1v0.1v0.1v0.1c-0.2,0-0.2,0.1-0.1,0.1l0.1,0.2L5.6,30c0,0,0.1,0,0.1,0h0.1h0.1H6h0.1c0,0.1,0.1,0.1,0.1,0
				l0.2-0.1c0.2,0.1,0.3-0.1,0.3-0.3C6.7,29.4,6.6,29.1,6.5,29z"/>
		</g>
	</g>
	<g>
		<g>
			<path class="st0" d="M31.8,29.1H21.3v-2h7.1c0.4,0,0.8-0.3,0.8-0.7v-7.7c0-1.3-1.1-2.4-2.4-2.4h-3.7l-0.3-1.1
				c1.5-0.9,2.6-2.4,3-4.1c0.3,0,0.7-0.3,0.7-0.8l0.7-4.7l0,0V5.3V5.1c-0.4-1.3-1.1-2.6-2-3.5c-1-0.9-2.4-1.3-3.7-1.2l0,0
				c0,0-3.3,0.4-5.2,0.5c-0.5,0-1.4,0.3-2,1.6c-0.3,0.7-0.4,1.5,0,2.4V6l0,0l-0.1,4.2c0,0.3,0.3,0.7,0.7,0.7c0.2,1.8,1.3,3.3,3,4.1
				l-0.4,1.2h-3.7c-1.3,0-2.4,1.1-2.4,2.4v7.7c0,0.4,0.3,0.7,0.8,0.7h7.1v2H8.8C8.4,28.9,8,29.2,8,29.7c0,0.4,0.8,1.3,0.8,1.3h10.6
				v2c-1.3,0.3-2.3,1.6-2.3,3.2c0,1.8,1.4,3.2,3.2,3.2c1.8,0,3.2-1.4,3.2-3.2c0-1.5-1.1-2.7-2-3.2v-2h10.3c0.4-0.5,0.8-0.8,0.8-1.3
				C32.6,29.1,31.8,29.1,31.8,29.1z M22.7,17.2h3.7c0.5,0,0.9,0.4,0.9,0.9v8h-6.7l2-2c0.1-0.2,0.2-0.4,0.2-0.7L22,17.5L22.7,17.2z
				 M20.2,24.3L19,23.1l0.5-4.4l0.3,0.2c0.2,0.2,0.7,0.2,0.9,0l0.3-0.2l0.5,4.4L20.2,24.3z M16,6.6c0,0.5-0.1,1.5-0.4,2.2l0,0
				c0,0,0,0.1-0.1,0.1l0,0c0,0,0,0.1-0.1,0.1l0-3.1V5l0,0c-0.1-1.2,0.3-2.6,1-2.6c2-0.1,5-0.5,5.3-0.5c1-0.1,1.9,0.2,2.6,0.9
				c0.7,0.7,0,2.4,0,2.4v0.1v0.2l1,3.4l0,0V8.7l0,0c-0.2-0.3-0.2-0.9-0.3-1.4l0,0c0-0.5-0.1-1-0.2-1.3c0-0.2-0.3-0.7-0.3-0.7h-0.1
				h-0.1h-0.1h-0.1h-0.3H23C21.2,6,19.5,6,18,5.7l-0.8-0.2c-0.2-0.1-0.4,0-0.7,0.1c-0.2,0.1-0.3,0.3-0.3,0.7L16,6.6L16,6.6z
				 M16.2,10.8C16.2,10.7,16.4,10.7,16.2,10.8C16.4,10.7,16.4,10.7,16.2,10.8c0.1-0.1,0.1-0.2,0.2-0.2v-0.2v-0.1c0,0,0,0,0.1-0.1
				l0,0c0.1-0.1,0.1-0.1,0.2-0.2l0,0c0,0,0-0.1,0.7-0.1l0,0V9.8c-0.2-0.7,0.1-1.5,0.1-2.7l0,0c1.9,0.4,5.6,0.2,5.6,0.2h0.2
				c0,0.1,0,0.2,0,0.3s0,0.1,0,0.2l0,0c0,0.1,0,0.1,0,0.2l0,0c0,0.1,0,0.1,0,0.2l0,0c0,0.1,0,0.1,0,0.2l0,0v0.1c0,0,0,0,0,0.1v0.1
				v0.1c0,0,0,0,0,0.1s0.1,0.2,0.1,0.3l0,0c0.1,0.4,0.3,0.8,0.5,1.1l0,0c0,0,0,0,0.1,0.1l0.1,0.1l0,0C24,12,23,13.5,21.5,14
				c-0.3,0.1-0.5,0.5-0.4,0.9l0.3,1.5l-0.5,0.3l0,0L20,17.3l-0.9-0.7l0,0l-0.4-0.2L19,15c0.1-0.3-0.1-0.8-0.4-0.9
				C17.3,13.6,16.4,12.3,16.2,10.8z M13.4,26.1v-8.1c0-0.5,0.4-0.8,0.8-0.8h3.2l0.5,0.4l-0.6,5.2c0,0.2,0,0.4,0.2,0.6l1.7,1.7h-6.7
				v1H13.4z M21.9,36c0,1-0.8,1.6-1.6,1.6c-0.9,0-1.6-0.8-1.6-1.6c0-1,0.8-1.6,1.6-1.6C21.2,34.4,21.9,35.1,21.9,36z"/>
		</g>
	</g>
	<g>
		<g>
			<path class="st0" d="M5.6,32.8c-1.8,0-3.2,1.4-3.2,3.2s1.4,3.2,3.2,3.2s3.2-1.3,3.2-3.2S7.4,32.8,5.6,32.8z M5.6,37.7
				c-1,0-1.6-0.8-1.6-1.6c0-1,0.8-1.6,1.6-1.6c0.9,0,1.6,0.8,1.6,1.6C7.3,36.9,6.5,37.7,5.6,37.7z"/>
		</g>
	</g>
	<g>
		<g>
			<path class="st0" d="M34.9,32.8c-1.8,0-3.2,1.4-3.2,3.2s1.4,3.2,3.2,3.2c1.8,0,3.2-1.4,3.2-3.2C38.1,34.3,36.7,32.8,34.9,32.8z
				 M34.9,37.7c-1,0-1.6-0.8-1.6-1.6c0-1,0.8-1.6,1.6-1.6c1,0,1.6,0.8,1.6,1.6C36.6,36.9,35.9,37.7,34.9,37.7z"/>
		</g>
	</g>
</g>
</svg>
